<svg width="783" height="677" viewBox="0 0 783 677" fill="none" xmlns="http://www.w3.org/2000/svg">
<path d="M29.8821 53.6092L96.4857 15.9473H704.004L760.819 72.9721V572.791L751.244 612.581L711.239 656.2H104.997L55.2043 639.178L29.8821 588.536L20.0938 475.976L29.8821 53.6092Z" fill="white"/>
<path d="M29.8821 53.6092L96.4857 15.9473H704.004L760.819 72.9721V572.791L751.244 612.581L711.239 656.2H104.997L55.2043 639.178L29.8821 588.536L20.0938 475.976L29.8821 53.6092Z" fill="white"/>
<path fill-rule="evenodd" clip-rule="evenodd" d="M96.5987 15.9473H703.912L760.819 73.059V572.659L751.23 612.5L711.148 656.2H105.126L55.2457 639.15L29.881 588.428L20.0938 475.89L29.8796 53.6712L96.5987 15.9473ZM96.7107 16.3725L30.2992 53.9225L20.5195 475.877L30.2977 588.31L55.5482 638.804L105.197 655.775H710.961L750.843 612.294L760.394 572.608V73.2347L703.736 16.3725H96.7107Z" fill="black"/>
<path fill-rule="evenodd" clip-rule="evenodd" d="M685.172 38.7056H97.821C65.1711 38.7056 38.7031 65.1753 38.7031 97.8273V578.457C38.7031 611.109 65.1711 637.579 97.821 637.579H685.172C717.822 637.579 744.29 611.109 744.29 578.457V97.8273C744.29 65.1753 717.822 38.7056 685.172 38.7056ZM97.821 0C43.7959 0 0 43.7988 0 97.8273V578.457C0 632.486 43.7959 676.284 97.821 676.284H685.172C739.197 676.284 782.993 632.486 782.993 578.457V97.8273C782.993 43.7988 739.197 0 685.172 0H97.821Z" fill="black"/>
<path d="M127.113 439.401C127.113 432.336 121.4 426.609 114.352 426.609H70.9724C63.9244 426.609 58.2109 420.881 58.2109 413.816V408.44C58.2109 401.375 63.9244 395.647 70.9723 395.647H265.796C272.844 395.647 278.558 401.375 278.558 408.44V413.816C278.558 420.881 272.844 426.609 265.796 426.609H222.417C215.369 426.609 209.656 432.336 209.656 439.401V604.588C209.656 611.653 203.942 617.38 196.894 617.38H139.874C132.827 617.38 127.113 611.653 127.113 604.588V439.401Z" fill="black"/>
<path d="M347.756 469.775C353.771 469.775 358.437 471.128 361.756 473.832C365.074 476.328 367.563 479.136 369.222 482.257C371.089 486.001 372.126 490.057 372.333 494.426V494.426C372.333 501.147 366.906 506.595 360.21 506.595H329.312C325.83 506.595 323.038 503.86 321.623 500.666V500.666C320.793 499.002 319.549 497.546 317.89 496.298C316.23 495.05 313.949 494.426 311.045 494.426C307.934 494.426 305.549 495.05 303.89 496.298C302.231 497.546 300.986 499.002 300.156 500.666C299.327 502.539 298.808 504.515 298.601 506.595V604.569C298.601 611.637 292.893 617.366 285.853 617.366H237.928C230.887 617.366 225.18 611.637 225.18 604.569V482.572C225.18 475.505 230.887 469.775 237.928 469.775H286.478C293.173 469.775 298.601 475.224 298.601 481.945V481.945C298.808 479.864 299.845 477.888 301.712 476.016C303.371 474.352 305.756 472.896 308.867 471.648C312.186 470.399 316.956 469.775 323.178 469.775H347.756Z" fill="black"/>
<path d="M488.824 469.775C494.838 469.775 500.127 470.503 504.69 471.96C509.46 473.416 513.505 475.288 516.823 477.576C520.349 479.864 523.253 482.465 525.534 485.377C527.816 488.289 529.786 491.306 531.445 494.426C535.178 501.499 537.253 509.611 537.667 518.764V604.257C537.667 611.325 531.96 617.054 524.919 617.054H476.369C469.674 617.054 464.246 611.606 464.246 604.885V604.885C464.039 607.173 463.002 609.253 461.135 611.126C459.476 612.79 456.987 614.246 453.668 615.494C450.35 616.534 445.683 617.054 439.669 617.054H415.091C405.758 616.638 397.565 614.558 390.514 610.814C387.403 609.357 384.395 607.485 381.492 605.197C378.588 602.701 375.995 599.788 373.714 596.46C371.432 592.924 369.566 588.867 368.114 584.291C366.87 579.714 366.247 574.306 366.247 568.065C366.247 561.825 366.87 556.416 368.114 551.84C369.566 547.055 371.432 542.999 373.714 539.67C375.995 536.134 378.588 533.222 381.492 530.934C384.395 528.645 387.403 526.669 390.514 525.005C397.565 521.261 405.758 519.18 415.091 518.764H451.498C458.538 518.764 464.246 513.035 464.246 505.967V494.426C464.039 492.138 463.52 490.057 462.691 488.185C461.861 486.521 460.616 485.065 458.957 483.817C457.298 482.569 454.913 481.945 451.802 481.945C448.691 481.945 446.306 482.569 444.646 483.817C443.194 485.065 442.054 486.521 441.224 488.185C440.395 490.057 439.876 492.138 439.669 494.426V494.426C439.669 501.147 434.241 506.595 427.546 506.595H390.503C383.808 506.595 378.38 501.147 378.38 494.426V494.426C378.588 490.057 379.625 486.001 381.492 482.257C383.151 479.136 385.536 476.328 388.647 473.832C391.966 471.128 396.736 469.775 402.958 469.775H488.824ZM439.669 580.234C439.669 586.475 440.913 590.636 443.402 592.716C445.891 594.796 448.691 595.836 451.802 595.836C453.294 595.836 454.853 595.67 456.479 595.337C461.378 594.335 464.246 589.492 464.246 584.473V549.941C464.246 543.085 458.282 537.504 451.802 539.67V539.67C448.691 540.919 445.891 542.791 443.402 545.287C440.913 547.575 439.669 551.112 439.669 555.896V580.234Z" fill="black"/>
<path d="M547.115 482.572C547.115 475.505 552.822 469.775 559.863 469.775H607.788C614.829 469.775 620.536 475.505 620.536 482.572V519.076C620.743 521.365 621.262 523.445 622.092 525.317C622.781 526.701 623.687 527.941 624.807 529.037C625.263 529.484 625.778 529.872 626.357 530.14C627.947 530.877 630.051 531.246 632.669 531.246C635.573 531.246 637.854 530.726 639.514 529.685C641.173 528.437 642.417 526.981 643.247 525.317C644.076 523.445 644.595 521.365 644.802 519.076V482.572C644.802 475.505 650.51 469.775 657.551 469.775H705.787C712.827 469.775 718.535 475.505 718.535 482.572V519.076C718.535 525.109 717.187 529.789 714.49 533.118C712.002 536.238 709.202 538.63 706.091 540.294C702.357 542.167 698.313 543.207 693.957 543.415C698.313 543.623 702.357 544.663 706.091 546.535C709.202 548.199 712.002 550.696 714.49 554.024C717.187 557.352 718.535 562.033 718.535 568.065V604.569C718.535 611.637 712.827 617.366 705.787 617.366H657.551C650.51 617.366 644.802 611.637 644.802 604.569V568.065C644.595 565.985 644.076 564.009 643.247 562.137C642.417 560.472 641.173 559.016 639.514 557.768C637.854 556.52 635.573 555.896 632.669 555.896C629.558 555.896 627.173 556.52 625.514 557.768C624.062 559.016 622.921 560.472 622.092 562.137C621.262 564.009 620.743 565.985 620.536 568.065V604.569C620.536 611.637 614.828 617.366 607.788 617.366H559.863C552.822 617.366 547.115 611.637 547.115 604.569V568.065C547.115 562.033 548.359 557.352 550.848 554.024C553.337 550.696 556.137 548.199 559.248 546.535C562.774 544.663 566.818 543.623 571.381 543.415C566.818 543.207 562.774 542.167 559.248 540.294C556.137 538.63 553.337 536.238 550.848 533.118C548.359 529.789 547.115 525.109 547.115 519.076V482.572Z" fill="black"/>
<path d="M58.2109 412.859C58.2109 403.353 65.8273 395.647 75.2226 395.647H679.775H719.114H751.437C760.832 395.647 768.448 403.353 768.448 412.859V431.791C768.448 441.296 760.832 449.002 751.437 449.002H719.114H75.2226C65.8273 449.002 58.2109 441.296 58.2109 431.791V412.859Z" fill="black"/>
<path d="M674.906 337.453H783.001V433.768H674.906V337.453Z" fill="black"/>
<path d="M609.766 316.299C609.766 288.177 632.548 265.38 660.652 265.38H693.304C721.408 265.38 744.191 288.177 744.191 316.299V344.729C744.191 372.851 721.408 395.648 693.304 395.648H660.652C632.548 395.648 609.766 372.851 609.766 344.729V316.299Z" fill="white"/>
<path d="M60.2812 95.5217C60.2812 74.1448 77.622 56.8154 99.0129 56.8154H684.669C706.06 56.8154 723.4 74.1448 723.4 95.5217V337.543C723.4 358.919 706.06 376.249 684.669 376.249H99.0128C77.622 376.249 60.2812 358.919 60.2812 337.543V95.5217Z" fill="black"/>
<path d="M240.803 98.3877C247.846 98.3877 253.556 104.109 253.556 111.166V118.459C253.556 125.517 247.846 131.238 240.803 131.238H201.405C194.362 131.238 188.652 136.959 188.652 144.016V190.132C188.652 197.189 194.362 202.91 201.405 202.91H201.729C208.772 202.91 214.481 208.632 214.481 215.689V216.345C214.481 223.403 208.772 229.124 201.729 229.124H201.405C194.362 229.124 188.652 234.845 188.652 241.903V288.018C188.652 295.076 194.362 300.797 201.405 300.797H240.803C247.846 300.797 253.556 306.518 253.556 313.575V320.868C253.556 327.926 247.846 333.647 240.803 333.647H122.924C115.881 333.647 110.172 327.926 110.172 320.868V111.166C110.172 104.109 115.881 98.3877 122.924 98.3877H240.803Z" fill="white"/>
<path d="M428.167 98.3877C435.21 98.3877 440.919 104.109 440.919 111.166V320.536C440.919 327.594 435.21 333.315 428.167 333.315H375.523C368.48 333.315 362.77 327.594 362.77 320.536V320.374C362.549 322.807 361.445 325.019 359.459 327.01C357.692 328.78 355.043 330.329 351.511 331.656C347.979 332.762 343.012 333.315 336.61 333.315H310.45C303.827 333.315 298.087 332.651 293.23 331.324C288.374 329.776 284.069 327.785 280.316 325.351C276.784 322.918 273.693 320.153 271.044 317.056C268.616 313.959 266.629 310.751 265.084 307.433C261.11 299.912 258.902 291.174 258.461 281.219V228.792C258.461 222.377 259.123 216.736 260.448 211.869C261.993 206.782 263.98 202.468 266.408 198.929C268.836 195.168 271.596 192.071 274.687 189.638C277.777 187.204 280.978 185.103 284.29 183.333C291.796 179.351 300.516 177.139 310.45 176.697H314.092C315.858 176.697 318.397 176.807 321.709 177.029C325.241 177.029 330.208 176.918 336.61 176.697C343.012 176.697 347.869 177.36 351.18 178.688C354.712 179.794 357.361 181.232 359.127 183.001V183.001C359.724 183.599 362.77 182.789 362.77 181.943V105.935C362.77 101.767 366.142 98.3877 370.302 98.3877H428.167ZM362.77 211.139C362.77 206.128 359.902 201.322 355.021 200.233C353.103 199.806 351.271 199.592 349.524 199.592C346.213 199.592 343.233 200.698 340.584 202.91C337.934 205.123 336.61 209.436 336.61 215.851V294.16C336.61 300.797 337.934 305.221 340.584 307.433C343.233 309.645 346.213 310.751 349.524 310.751C351.271 310.751 353.103 310.538 355.021 310.11C359.902 309.022 362.77 304.216 362.77 299.205V211.139Z" fill="white"/>
<path d="M467.039 333.647C459.996 333.647 454.286 327.926 454.286 320.868V189.807C454.286 182.75 459.996 177.029 467.039 177.029H519.683C526.726 177.029 532.436 182.75 532.436 189.807V320.868C532.436 327.926 526.726 333.647 519.683 333.647H467.039ZM454.286 111.498C454.286 104.441 459.996 98.7195 467.039 98.7195H519.683C526.726 98.7195 532.436 104.441 532.436 111.498V138.036C532.436 145.094 526.726 150.815 519.683 150.815H467.039C459.996 150.815 454.286 145.094 454.286 138.036V111.498Z" fill="white"/>
<path d="M633.906 98.7195C640.949 98.7195 646.658 104.441 646.658 111.498V164.25C646.658 171.307 652.368 177.029 659.411 177.029H660.066C667.109 177.029 672.818 182.75 672.818 189.807V190.464C672.818 197.521 667.109 203.242 660.066 203.242H659.411C652.368 203.242 646.658 208.963 646.658 216.021V294.492C646.879 296.926 647.431 299.138 648.314 301.129C649.197 302.898 650.411 304.447 651.957 305.774C653.723 307.101 656.261 307.765 659.573 307.765H660.066C667.109 307.765 672.818 313.486 672.818 320.544V321.2C672.818 328.257 667.109 333.979 660.066 333.979H620.498C613.875 333.979 608.136 333.315 603.279 331.988C598.422 330.439 594.117 328.448 590.364 326.015C586.832 323.36 583.742 320.485 581.092 317.388C578.664 314.291 576.677 311.083 575.132 307.765C571.158 300.244 568.951 291.506 568.509 281.551V216.021C568.509 208.963 562.8 203.242 555.757 203.242H555.102C548.059 203.242 542.349 197.521 542.349 190.464V189.807C542.349 182.75 548.058 177.029 555.102 177.029H555.757C562.8 177.029 568.509 171.307 568.509 164.25V111.498C568.509 104.441 574.219 98.7195 581.262 98.7195H633.906ZM633.906 98.7195C640.949 98.7195 646.658 104.441 646.658 111.498V164.25C646.658 171.307 652.368 177.029 659.411 177.029H660.066C667.109 177.029 672.818 182.75 672.818 189.807V190.464C672.818 197.521 667.109 203.242 660.066 203.242H659.411C652.368 203.242 646.658 208.963 646.658 216.021V294.492C646.879 296.926 647.431 299.138 648.314 301.129C649.197 302.898 650.411 304.447 651.957 305.774C653.723 307.101 656.261 307.765 659.573 307.765H660.066C667.109 307.765 672.818 313.486 672.818 320.544V321.2C672.818 328.257 667.109 333.979 660.066 333.979H620.498C613.875 333.979 608.136 333.315 603.279 331.988C598.422 330.439 594.117 328.448 590.364 326.015C586.832 323.36 583.742 320.485 581.092 317.388C578.664 314.291 576.677 311.083 575.132 307.765C571.158 300.244 568.951 291.506 568.509 281.551V216.021C568.509 208.963 562.8 203.242 555.757 203.242H555.102C548.059 203.242 542.349 197.521 542.349 190.464V189.807C542.349 182.75 548.058 177.029 555.102 177.029H555.757C562.8 177.029 568.509 171.307 568.509 164.25V111.498C568.509 104.441 574.219 98.7195 581.262 98.7195H633.906Z" fill="white"/>
</svg>
