<svg width="32" height="15" viewBox="0 0 32 15" fill="none" xmlns="http://www.w3.org/2000/svg">
<path d="M4.39432 0.924944C3.2483 0.154879 1.69501 0.459653 0.924944 1.60568C0.154879 2.7517 0.459653 4.30499 1.60568 5.07506L4.39432 0.924944ZM30.4526 5.03467C31.5763 4.2324 31.8369 2.67108 31.0347 1.54737C30.2324 0.423656 28.6711 0.163071 27.5474 0.965338L30.4526 5.03467ZM17.5215 11.195L16.0689 9.1603L17.5215 11.195ZM1.60568 5.07506L13.8496 13.3023L16.6383 9.15222L4.39432 0.924944L1.60568 5.07506ZM18.9742 13.2296L30.4526 5.03467L27.5474 0.965338L16.0689 9.1603L18.9742 13.2296ZM13.8496 13.3023C15.4061 14.3482 17.448 14.3192 18.9742 13.2296L16.0689 9.1603C16.2385 9.03923 16.4653 9.03602 16.6383 9.15222L13.8496 13.3023Z" fill="black"/>
</svg>
