<svg width="28" height="29" viewBox="0 0 28 29" fill="none" xmlns="http://www.w3.org/2000/svg">
<path fill-rule="evenodd" clip-rule="evenodd" d="M1.65021 17.0315C0.752991 16.0595 0.752993 14.5614 1.65021 13.5894V13.5894C2.65494 12.5009 4.3745 12.5009 5.37922 13.5894L11.5552 20.28L11.5552 2.85893C11.5552 1.398 12.6484 0.213673 13.997 0.213673C15.3456 0.213673 16.4388 1.398 16.4388 2.85893L16.4388 20.28L22.6148 13.5894C23.6195 12.5009 25.3391 12.5009 26.3438 13.5894V13.5894C27.241 14.5614 27.241 16.0595 26.3438 17.0315L16.2014 28.0191C15.0135 29.306 12.9805 29.306 11.7926 28.0191L1.65021 17.0315Z" fill="black"/>
</svg>
